# xmcd CD database file
#
# Track frame offsets:
#	150
#	4673
#	17163
#	25201
#	35926
#	63460
#	78193
#	87846
#	103242
#	116152
#	124914
#	133423
#	144045
#	153006
#	161543
#	173913
#	191463
#
# Disc length: 2775 seconds
#
# Revision: 1
# Processed by: cddbd v1.5.1PL0 Copyright (c) Steve Scherf et al.
# Submitted via: CDex 1.51
#
DISCID=de0ad511
DTITLE=Various Artist - Songcatcher II
DYEAR=2002
DGENRE=Country
TTITLE0=Almeda Riddle - Babes In The Woods
TTITLE1=Doc Watson - Georgie
TTITLE2=Hobart Smith - The Coo Coo Bird
TTITLE3=Almeda Riddle - The Two Lovers
TTITLE4=Doc Watson - Matty Groves
TTITLE5=Dock Boggs - Oh Death
TTITLE6=Sarah Ogan Gunning - Girl Of Constant Sorrow
TTITLE7=Doc Watson - Winters Night
TTITLE8=Almeda Riddle - Black Jack Davey
TTITLE9=Dock Boggs - Surgar Baby
TTITLE10=Cousin Emmy - Wish I Was A Single Girl Again
TTITLE11=Fiddlin' Arther Smith - Leather Britches
TTITLE12=Almeda Riddle - Will The Weaver
TTITLE13=Roscoe Holcomb - Little Birdie
TTITLE14=Doc Watson - Pretty Saro
TTITLE15=Clarence Ashley - House Carpenter
TTITLE16=Maybelle Carter - Come All Ye Fair And Tender Ladies
EXTD=YEAR: 2002
EXTT0=
EXTT1=
EXTT2=
EXTT3=
EXTT4=
EXTT5=
EXTT6=
EXTT7=
EXTT8=
EXTT9=
EXTT10=
EXTT11=
EXTT12=
EXTT13=
EXTT14=
EXTT15=
EXTT16=
PLAYORDER=
